<svg width="140" height="140" viewBox="0 0 140 140" fill="none" xmlns="http://www.w3.org/2000/svg">
<rect width="140" height="140" fill="black"/>
<path d="M63.1196 44.7285C62.3306 45.1563 61.3481 45.6875 60.187 46.7178C56.8906 49.6445 55 53.8477 55 58.249V106.29C55 108.336 56.6641 110 58.7095 110H82.1577C84.2031 110 85.8672 108.336 85.8672 106.29V58.249C85.8672 53.9775 84.0674 49.8594 80.9297 46.9502C79.7344 45.8428 78.6748 45.3057 77.9009 44.9131C76.627 44.2676 76.2847 44.0947 76.2847 42.0254V40.6484C77.395 40.6017 78.2856 39.6909 78.2856 38.5693V32.0879C78.2856 30.9365 77.3491 30 76.1978 30H64.6694C63.5181 30 62.5815 30.9365 62.5815 32.0879V38.5693C62.5815 39.7207 63.5181 40.6572 64.6694 40.6572H64.8755V41.5518C64.8755 43.7783 64.4683 43.999 63.1196 44.7285Z" fill="white"/>
<line x1="55" y1="67.5" x2="86" y2="67.5" stroke="black"/>
<line x1="55" y1="90.5" x2="86" y2="90.5" stroke="black"/>
</svg>
